PathFileType	4	(X/Y/Z)	3_coords_data.trc
DataRate	CameraRate	NumFrames	NumMarkers	Units	OrigDataRate	OrigDataStartFrame	OrigNumFrames
30.0	30.0	6	21	m	30.0	41	71
Frame#	Time	THUMB_TIP	THUMB_IP	THUMB_MCP	THUMB_CMC	INDEX_TIP	INDEX_DIP	INDEX_PIP	INDEX_MCP	MIDDLE_TIP	MIDDLE_DIP	MIDDLE_PIP	MIDDLE_MCP	RING_TIP	RING_DIP	RING_PIP	RING_MCP	PINKY_TIP	PINKY_DIP	PINKY_PIP	PINKY_MCP	WRIST
X1	Y1	Z1	X2	Y2	Z2	X3	Y3	Z3	X4	Y4	Z4	X5	Y5	Z5	X6	Y6	Z6	X7	Y7	Z7	X8	Y8	Z8	X9	Y9	Z9	X10	Y10	Z10	X11	Y11	Z11	X12	Y12	Z12	X13	Y13	Z13	X14	Y14	Z14	X15	Y15	Z15	X16	Y16	Z16	X17	Y17	Z17	X18	Y18	Z18	X19	Y19	Z19	X20	Y20	Z20	X21	Y21	Z21
40	1.3333333333333333	-0.09394599914550782	-0.07464810180664062	0.9782169799804687	-0.11684799957275391	-0.07738710021972656	0.9727869873046875	-0.1387429962158203	-0.061247798919677736	0.9806630249023438	-0.13326400756835938	-0.03569490051269531	0.9973389892578125	-0.12191500091552734	-0.12157700347900391	0.9090650024414062	-0.12423999786376953	-0.10118299865722656	0.9164190063476563	-0.1262760009765625	-0.078908203125	0.92475	-0.12724500274658204	-0.040954299926757816	0.9422470092773437	-0.11196700286865234	-0.06450099945068359	0.9682680053710937	-0.10421700286865235	-0.08136380004882812	0.9554439697265625	-0.10136100006103516	-0.07520379638671874	0.930718994140625	-0.10503299713134766	-0.03518899917602539	0.941906982421875	-0.09813289642333985	-0.0616240005493164	0.9763660278320313	-0.08829650115966797	-0.07481430053710937	0.9630170288085937	-0.07940760040283203	-0.0697393035888672	0.9420089721679688	-0.08736979675292969	-0.03358259963989258	0.95339501953125	-0.039625099182128906	-0.0902345962524414	0.9455570068359375	-0.048016300201416014	-0.0735010986328125	0.9520910034179687	-0.058161998748779295	-0.05849129867553711	0.95875	-0.07660800170898438	-0.037544898986816407	0.9722269897460938	-0.12347499847412109	-0.001393010020256042	1.0220399780273437
41	1.3666666666666667	-0.09265679931640625	-0.0758136978149414	0.9779450073242187	-0.115375	-0.07830339813232422	0.9732650146484375	-0.13708599853515624	-0.0628400001525879	0.9816729736328125	-0.13247500610351562	-0.03772439956665039	0.9983270263671875	-0.11798500061035157	-0.12313400268554688	0.9114979858398438	-0.12096099853515625	-0.10259300231933594	0.9176179809570313	-0.12421099853515626	-0.0800000991821289	0.9253109741210938	-0.1272070007324219	-0.04209820175170898	0.942666015625	-0.10997000122070312	-0.06641310119628906	0.96818701171875	-0.1018270034790039	-0.08247039794921875	0.9550659790039062	-0.09927510070800781	-0.0756978988647461	0.9308289794921875	-0.10505000305175781	-0.03587229919433594	0.942448974609375	-0.09749189758300782	-0.0620880012512207	0.9770549926757812	-0.08641950225830078	-0.07486250305175782	0.962906982421875	-0.07785459899902344	-0.0690198974609375	0.9419949951171875	-0.08695069885253906	-0.0329552001953125	0.9531690063476562	-0.037995399475097655	-0.08810189819335937	0.9455560302734375	-0.04604150009155274	-0.07129820251464844	0.951447998046875	-0.05620080184936523	-0.05606439971923828	0.9578579711914063	-0.07538130187988282	-0.035885101318359376	0.9716669921875	-0.12385199737548828	-0.0018519400358200072	1.0223900146484375
42	1.4	-0.09184210205078125	-0.078618896484375	0.9769539794921875	-0.11550499725341797	-0.0797698974609375	0.9735709838867187	-0.13736000061035156	-0.06429109954833985	0.9832869873046876	-0.13171099853515625	-0.038683799743652346	0.99847900390625	-0.11291999816894531	-0.12428700256347656	0.914447021484375	-0.1171240005493164	-0.10380699920654297	0.91906201171875	-0.12168699645996094	-0.0805969009399414	0.9258489990234375	-0.12661199951171875	-0.04333739852905273	0.9432869873046875	-0.10750299835205078	-0.06705359649658203	0.9697949829101562	-0.09918250274658204	-0.08278620147705078	0.955885986328125	-0.09692220306396485	-0.07570539855957031	0.9312999877929687	-0.1048219985961914	-0.03610940170288086	0.9422559814453125	-0.09481960296630859	-0.06378779983520508	0.9767310180664063	-0.08365859985351562	-0.07466719818115235	0.9627839965820313	-0.07603130340576172	-0.06748789978027343	0.9412540283203125	-0.08692269897460937	-0.03219430160522461	0.9527689819335937	-0.03685200119018555	-0.08513809967041015	0.9448790283203125	-0.04427019882202148	-0.06811740112304687	0.95025	-0.05426449966430664	-0.05276390075683594	0.9562760009765625	-0.07425370025634766	-0.033427700042724606	0.9712319946289063	-0.12438400268554688	-0.002009119987487793	1.02272998046875
43	1.4333333333333333	-0.09314700317382812	-0.08166300201416016	0.9764030151367188	-0.11782399749755859	-0.08162079620361327	0.972551025390625	-0.13926100158691407	-0.06488749694824218	0.9820889892578125	-0.13131900024414062	-0.03892829895019531	0.9982219848632813	-0.10852400207519532	-0.12441200256347656	0.9167420043945312	-0.11369100189208985	-0.10409200286865235	0.9199609985351562	-0.1196969985961914	-0.08093150329589843	0.9256339721679687	-0.12700900268554688	-0.043904499053955076	0.9431699829101563	-0.1042570037841797	-0.07045480346679688	0.97097900390625	-0.09672769927978515	-0.08261630249023437	0.9557100219726562	-0.09499620056152344	-0.07483309936523437	0.93077099609375	-0.10471099853515625	-0.03566400146484375	0.9421229858398438	-0.09188780212402343	-0.06438580322265625	0.975375	-0.08098220062255859	-0.07340380096435548	0.9611389770507812	-0.07441960144042968	-0.06473000335693359	0.9394520263671875	-0.08662049865722657	-0.03059880065917969	0.9523359985351563	-0.0368291015625	-0.08176709747314453	0.9441389770507812	-0.04317959976196289	-0.06428700256347657	0.9483140258789062	-0.05273809814453125	-0.04866239929199219	0.954125	-0.07307379913330078	-0.03027820014953613	0.9695789794921875	-0.12518699645996093	-0.002535929918289184	1.0221799926757813
44	1.4666666666666666	-0.09763120269775391	-0.08605079650878907	0.974125	-0.12126799774169922	-0.0827594985961914	0.9714929809570313	-0.1417270050048828	-0.06472969818115235	0.9821619873046875	-0.13128599548339845	-0.039045101165771486	0.998573974609375	-0.10445099639892579	-0.12353399658203125	0.91872998046875	-0.11060299682617188	-0.10338500213623047	0.9206480102539063	-0.1177959976196289	-0.08051239776611328	0.9250260009765625	-0.12677899932861328	-0.043834499359130856	0.9429760131835937	-0.1022040023803711	-0.07208989715576172	0.96947802734375	-0.09375869750976562	-0.0829801025390625	0.9545029907226562	-0.09340779876708985	-0.07345950317382813	0.9305070190429687	-0.10511100006103516	-0.0347677001953125	0.9418090209960938	-0.08922959899902344	-0.06473290252685547	0.9739990234375	-0.07804830169677734	-0.07176429748535157	0.9589710083007813	-0.07330280303955078	-0.06147769927978516	0.9376430053710938	-0.08680180358886719	-0.02835149955749512	0.9515079956054687	-0.03814690017700195	-0.07791239929199219	0.9436580200195313	-0.043096298217773436	-0.06007310104370117	0.9463820190429687	-0.052137401580810545	-0.04399340057373047	0.9516320190429688	-0.0728053970336914	-0.026748800277709962	0.9679210205078125	-0.12583499908447265	-0.0026682500839233397	1.0232000122070313
45	1.5	-0.10130400085449219	-0.08884279632568359	0.971677978515625	-0.12608699798583983	-0.08286129760742188	0.9696190185546875	-0.14406300354003906	-0.06378499984741211	0.9815490112304688	-0.132927001953125	-0.038232200622558596	0.9985260009765625	-0.10006600189208985	-0.12181700134277344	0.9202219848632812	-0.10736299896240234	-0.10194599914550781	0.920905029296875	-0.11546099853515625	-0.07953980255126954	0.924177978515625	-0.12674700164794922	-0.043605499267578125	0.942510009765625	-0.09997810363769531	-0.07397160339355469	0.9696859741210937	-0.09080159759521485	-0.08217400360107421	0.954031005859375	-0.09173999786376953	-0.07130950164794922	0.9293870239257812	-0.10521099853515625	-0.03311959838867187	0.9417620239257812	-0.08612889862060547	-0.06389009857177734	0.9718720092773437	-0.0753989028930664	-0.06949849700927735	0.9559349975585938	-0.07235449981689453	-0.057398601531982424	0.9355980224609375	-0.08721399688720703	-0.0257544002532959	0.9510830078125	-0.0392240982055664	-0.0736332015991211	0.9439500122070312	-0.04310919952392578	-0.055719898223876956	0.94502099609375	-0.051852298736572267	-0.039368499755859376	0.9497440185546875	-0.07281909942626953	-0.022960800170898438	0.9665490112304688	-0.12599700164794922	-0.002925649881362915	1.02247998046875
